<?xml version="1.0" standalone="no"?>
<!DOCTYPE svg PUBLIC "-//W3C//DTD SVG 20010904//EN"
 "http://www.w3.org/TR/2001/REC-SVG-20010904/DTD/svg10.dtd">
<svg version="1.0" xmlns="http://www.w3.org/2000/svg"
 width="168.000000pt" height="168.000000pt" viewBox="0 0 168.000000 168.000000"
 preserveAspectRatio="xMidYMid meet">
<metadata>
Created by potrace 1.11, written by Peter Selinger 2001-2013
</metadata>
<g transform="translate(0.000000,168.000000) scale(0.100000,-0.100000)"
fill="#000000" stroke="none">
<path d="M670 1660 c-182 -38 -295 -101 -432 -241 -163 -166 -239 -362 -233
-602 6 -230 93 -427 255 -581 172 -162 372 -239 608 -231 232 7 410 87 577
259 90 93 151 192 189 306 34 103 37 128 41 260 6 268 -109 507 -325 674 -100
78 -236 140 -350 161 -87 15 -246 13 -330 -5z"/>
</g>
</svg>
